<?xml version="1.0" encoding="UTF-8"?>
<svg id="Camada_1" data-name="Camada 1" xmlns="http://www.w3.org/2000/svg" viewBox="0 0 680.84 584.23">
  <defs>
    <style>
      .cls-1 {
        fill: #e6e6e6;
      }

      .cls-2 {
        fill: #e4e4e4;
      }

      .cls-3 {
        fill: #212121;
      }

      .cls-4 {
        fill: #ccc;
      }

      .cls-5 {
        fill: #fff;
      }

      .cls-6 {
        fill: #f2f2f2;
      }

      .cls-7 {
        fill: #2e2e41;
      }

      .cls-8 {
        fill: #a06166;
      }

      .cls-9 {
        fill: #cacaca;
      }
    </style>
  </defs>
  <path id="b9ccae5a-ffdd-4f5c-9c1e-05af9f0f3372-109" class="cls-1" d="M66.58,540.38c7.28,2.56,15.36,1.13,21.32-3.76,7.47-6.27,9.81-16.59,11.72-26.16l5.64-28.29-11.8,8.12c-8.49,5.84-17.16,11.87-23.04,20.33-5.87,8.46-8.44,20.01-3.72,29.17"/>
  <path id="f4ad1d06-bd03-4ced-a5c4-c19a65ab4ee5-110" class="cls-6" d="M68.4,576.59c-1.48-10.82-3.01-21.78-1.97-32.71.93-9.71,3.89-19.2,9.92-26.97,3.2-4.12,7.1-7.65,11.51-10.43,1.15-.73,2.21,1.1,1.06,1.82-7.64,4.83-13.55,11.96-16.88,20.36-3.67,9.34-4.26,19.53-3.63,29.46.38,6,1.2,11.97,2.01,17.92.13.56-.19,1.13-.74,1.3-.56.15-1.14-.18-1.3-.74h0Z"/>
  <path id="baf785f8-b4c6-42cf-85bd-8a16037845f7-111" class="cls-1" d="M79.09,559.23c3.12,4.74,8.49,7.52,14.16,7.31,7.17-.34,13.15-5.34,18.53-10.1l15.92-14.05-10.53-.5c-7.57-.36-15.35-.7-22.56,1.64s-13.87,7.96-15.19,15.43"/>
  <path id="a14e4330-7125-4e03-a856-d6453c34f6cc-112" class="cls-6" d="M64.2,582.81c7.15-12.65,15.44-26.71,30.26-31.2,4.12-1.25,8.44-1.69,12.73-1.31,1.35.12,1.01,2.2-.33,2.08-7.19-.6-14.36,1.3-20.31,5.37-5.73,3.9-10.19,9.32-13.96,15.06-2.31,3.52-4.38,7.19-6.45,10.85-.66,1.17-2.6.33-1.93-.86Z"/>
  <path id="ac20a106-7eb8-4a45-8835-674ef3bf3222-113" class="cls-5" d="M636.26,426.65H242.1c-2.53,0-4.58-2.05-4.58-4.58V56.03c0-2.53,2.05-4.58,4.58-4.58h394.16c2.53,0,4.58,2.05,4.58,4.58v366.04c0,2.53-2.05,4.58-4.58,4.58h0Z"/>
  <path id="a8878079-c7cd-406f-a434-8b15b914b9b4-114" class="cls-9" d="M636.26,426.65H242.1c-2.53,0-4.58-2.05-4.58-4.58V56.03c0-2.53,2.05-4.58,4.58-4.58h394.16c2.53,0,4.58,2.05,4.58,4.58v366.04c0,2.53-2.05,4.58-4.58,4.58h0ZM242.1,53.27c-1.52,0-2.74,1.23-2.75,2.75v366.05c0,1.52,1.23,2.74,2.75,2.75h394.16c1.52,0,2.74-1.23,2.75-2.75V56.03c0-1.52-1.23-2.74-2.75-2.75H242.1Z"/>
  <path id="af64f961-e9a2-4c53-a333-5060c7f850d2-115" class="cls-2" d="M428.35,146.56c-1.72,0-3.11,1.4-3.1,3.12,0,1.71,1.39,3.1,3.1,3.1h170.66c1.72,0,3.11-1.4,3.1-3.12,0-1.71-1.39-3.1-3.1-3.1h-170.66Z"/>
  <path id="baad4cfb-158d-4439-9cc3-22475bf47b22-116" class="cls-2" d="M428.35,165.23c-1.72,0-3.11,1.4-3.11,3.11,0,1.71,1.39,3.1,3.11,3.11h87.13c1.72,0,3.11-1.4,3.1-3.12,0-1.71-1.39-3.09-3.1-3.1h-87.13Z"/>
  <path id="f3456279-91e5-49ad-aa43-9838b26fb6ca-117" class="cls-2" d="M279.18,265.59c-1.72,0-3.11,1.4-3.1,3.12,0,1.71,1.39,3.09,3.1,3.1h319.99c1.72,0,3.11-1.4,3.1-3.12,0-1.71-1.39-3.09-3.1-3.1h-319.99Z"/>
  <path id="a3288adf-49f8-485f-8ae9-1e4f1a13d849-118" class="cls-2" d="M279.18,284.25c-1.72,0-3.11,1.4-3.11,3.11,0,1.71,1.39,3.1,3.11,3.11h236.46c1.72,0,3.11-1.4,3.1-3.12,0-1.71-1.39-3.09-3.1-3.1h-236.46Z"/>
  <path id="e63a5b48-5a7d-40a2-b9b0-6adec326348a-119" class="cls-2" d="M279.18,302.49c-1.72,0-3.11,1.4-3.11,3.11,0,1.71,1.39,3.1,3.11,3.11h319.99c1.72,0,3.11-1.4,3.1-3.12,0-1.71-1.39-3.09-3.1-3.1h-319.99Z"/>
  <path id="a1c669b4-dfc3-4cfa-a7be-66b71399844d-120" class="cls-2" d="M279.18,321.16c-1.72,0-3.11,1.4-3.11,3.11,0,1.71,1.39,3.1,3.11,3.11h236.46c1.72,0,3.11-1.4,3.1-3.12,0-1.71-1.39-3.09-3.1-3.1h-236.46Z"/>
  <path id="bfec50d1-ffb1-4de6-a9ef-a1085e40e016-121" class="cls-2" d="M279.18,339.88c-1.72,0-3.11,1.4-3.11,3.11,0,1.71,1.39,3.1,3.11,3.11h319.99c1.72,0,3.11-1.4,3.1-3.12,0-1.71-1.39-3.09-3.1-3.1h-319.99Z"/>
  <path id="bc9696ec-ec99-41d5-9116-3ad9737a38ac-122" class="cls-2" d="M279.18,358.55c-1.72,0-3.11,1.4-3.11,3.11,0,1.71,1.39,3.1,3.11,3.11h236.46c1.72,0,3.11-1.4,3.1-3.12,0-1.71-1.39-3.09-3.1-3.1h-236.46Z"/>
  <path class="cls-3" d="M329.87,203.69c-24.68,0-44.69-20.01-44.69-44.68,0-24.68,20.01-44.69,44.68-44.69,24.68,0,44.69,20.01,44.69,44.68h0c-.03,24.67-20.02,44.66-44.68,44.69Z"/>
  <path class="cls-8" d="M194.22,372.65c-.29-6.16-5.52-10.92-11.69-10.63-.66.03-1.31.12-1.95.27l-14.77-20.82-14.84,5.89,21.27,29.1c1.77,5.94,8.03,9.32,13.97,7.55,4.97-1.48,8.28-6.18,8-11.36h0Z"/>
  <path class="cls-4" d="M165.44,371.1l-44.69-57.98,16.75-52.63c1.23-13.23,9.51-16.93,9.86-17.08l.54-.23,14.57,38.86-10.7,28.53,26.26,44.17-12.58,16.36Z"/>
  <path class="cls-8" d="M320.65,192.37c-6.12.77-10.46,6.35-9.69,12.47.08.65.22,1.3.42,1.92l-19.61,16.34,7.02,14.34,27.37-23.46c5.79-2.23,8.67-8.73,6.45-14.51-1.86-4.84-6.8-7.78-11.95-7.1Z"/>
  <path class="cls-4" d="M321.33,221.19l-54.35,49.04-53.77-12.63c-13.29-.2-17.61-8.17-17.79-8.51l-.27-.52,37.62-17.53,29.27,8.46,42-29.6,17.28,11.28Z"/>
  <polygon class="cls-8" points="227.19 569.83 241.79 569.83 248.74 513.5 227.19 513.5 227.19 569.83"/>
  <path class="cls-7" d="M269.96,583.39h-45.89s0-17.73,0-17.73h33.02c7.11,0,12.88,5.76,12.88,12.87h0v4.86s0,0,0,0Z"/>
  <polygon class="cls-8" points="168.82 569.83 183.43 569.83 190.37 513.5 168.82 513.5 168.82 569.83"/>
  <path class="cls-7" d="M211.59,583.39h-45.89s0-17.73,0-17.73h33.02c7.11,0,12.88,5.76,12.88,12.87h0s0,4.86,0,4.86h0Z"/>
  <polygon class="cls-7" points="163.63 364.23 164.82 447.61 166.01 557.19 192.22 554.81 205.32 403.54 222 554.81 249.05 554.81 251.77 402.35 242.25 369 163.63 364.23"/>
  <path class="cls-4" d="M214.92,375.43c-28.51,0-54.76-12.9-55.11-13.08l-.29-.15-2.39-57.42c-.69-2.03-14.36-42.07-16.67-54.8-2.34-12.89,31.63-24.21,35.76-25.53l.94-10.37,38.08-4.1,4.83,13.27,13.66,5.12c3.21,1.2,5,4.61,4.19,7.94l-7.59,30.87,18.54,102.15-3.99.17c-9.57,4.32-19.9,5.92-29.94,5.92Z"/>
  <circle class="cls-8" cx="197.68" cy="175.99" r="27.42"/>
  <path class="cls-7" d="M175.47,202.53c5.22,5.57,14.93,2.58,15.61-5.03.05-.59.05-1.18-.01-1.77-.35-3.37-2.3-6.43-1.83-9.98.11-.89.44-1.73.96-2.45,4.16-5.58,13.94,2.49,17.87-2.55,2.41-3.09-.42-7.97,1.43-11.43,2.44-4.57,9.67-2.31,14.2-4.81,5.04-2.78,4.74-10.52,1.42-15.23-4.05-5.74-11.15-8.8-18.16-9.24s-13.97,1.45-20.52,4c-7.44,2.9-14.81,6.9-19.39,13.44-5.56,7.95-6.1,18.64-3.32,27.94,1.69,5.66,7.47,12.57,11.74,17.11Z"/>
  <path class="cls-9" d="M368.31,584.09H20.86c-.5,0-.91-.41-.91-.91s.41-.91.91-.91h347.45c.5,0,.91.41.91.91s-.41.91-.91.91Z"/>
  <path class="cls-5" d="M327.29,175.88c-.81,0-1.58-.3-2.17-.85l-14.73-13.69c-1.29-1.2-1.36-3.22-.16-4.51,1.2-1.29,3.21-1.36,4.51-.17l12.48,11.59,24.69-24.69c1.24-1.25,3.26-1.26,4.51-.02,1.25,1.24,1.26,3.26.02,4.51,0,0-.01.01-.02.02l-26.87,26.87c-.6.6-1.41.94-2.26.93Z"/>
</svg>