<?xml version="1.0" encoding="UTF-8"?>
<svg id="Camada_1" data-name="Camada 1" xmlns="http://www.w3.org/2000/svg" viewBox="0 0 680.84 584.23">
  <defs>
    <style>
      .cls-1 {
        fill: #344130;
      }

      .cls-2 {
        isolation: isolate;
        opacity: .25;
      }

      .cls-3 {
        fill: #212121;
      }

      .cls-4 {
        fill: #ccc;
      }

      .cls-5 {
        fill: #fff;
      }

      .cls-6 {
        fill: #2e2e41;
      }

      .cls-7 {
        fill: #a06166;
      }

      .cls-8 {
        fill: #101021;
      }

      .cls-9 {
        fill: #cacaca;
      }
    </style>
  </defs>
  <path id="b7dc7a19-2955-4780-ad93-c52a96f67a65-378" class="cls-9" d="M702.95,611.95c1.71-12.48,3.48-25.12,2.27-37.73-1.07-11.2-4.48-22.14-11.44-31.11-3.69-4.75-8.19-8.82-13.28-12.03-1.33-.84-2.55,1.27-1.23,2.1,8.81,5.57,15.63,13.79,19.46,23.48,4.24,10.78,4.92,22.53,4.19,33.97-.44,6.92-1.38,13.8-2.32,20.67-.15.64.22,1.3.85,1.5.65.17,1.31-.2,1.5-.85h0Z"/>
  <path id="e1d169dc-da63-490d-893d-3e04e06c6dbd-377" class="cls-8" d="M689.26,535.63c-8.39,2.95-17.72,1.31-24.59-4.33-8.61-7.23-11.32-19.14-13.51-30.17l-6.5-32.62,13.61,9.37c9.79,6.74,19.79,13.69,26.57,23.45,6.78,9.76,9.73,23.08,4.29,33.65"/>
  <path id="ba9a9309-6361-43cb-a10e-efdc2c0b21e6-379" class="cls-8" d="M674.83,557.38c-3.6,5.47-9.79,8.67-16.34,8.43-8.27-.39-15.17-6.16-21.37-11.64l-18.36-16.21,12.15-.58c8.74-.42,17.7-.81,26.02,1.89,8.32,2.7,16,9.18,17.52,17.79"/>
  <path id="abb4e2ed-9276-4565-9a98-ba1ebe7a1fe1-380" class="cls-9" d="M692,584.58c-8.25-14.59-17.81-30.81-34.9-35.99-4.75-1.44-9.73-1.95-14.68-1.52-1.56.13-1.17,2.54.39,2.4,8.29-.69,16.56,1.5,23.43,6.2,6.61,4.5,11.75,10.75,16.1,17.38,2.67,4.06,5.05,8.29,7.44,12.52.76,1.35,2.99.38,2.22-.99Z"/>
  <path class="cls-5" d="M552.61,408.04H139.24v-88.35h413.37v88.35Z"/>
  <circle class="cls-4" cx="192.8" cy="363.86" r="22.44"/>
  <path class="cls-4" d="M244.64,348.9c-2.07,0-3.74,1.67-3.74,3.74s1.67,3.74,3.74,3.74h273.12c2.07,0,3.74-1.68,3.73-3.75,0-2.06-1.67-3.73-3.73-3.73H244.64Z"/>
  <path class="cls-4" d="M244.64,371.34c-2.07,0-3.74,1.67-3.75,3.73,0,2.07,1.67,3.74,3.73,3.75h172.67c2.07,0,3.74-1.67,3.74-3.74s-1.67-3.74-3.74-3.74h-172.65Z"/>
  <path class="cls-9" d="M552.61,408.04H139.24v-88.35h413.37v88.35ZM145.55,401.73h400.74v-75.73H145.55v75.73Z"/>
  <path class="cls-1" d="M574.35,386.09c-1.52-4.46.87-9.31,5.34-10.83.48-.16.97-.28,1.46-.36l4.68-18.93,12.2.04-6.98,26.64c.4,4.72-3.1,8.88-7.82,9.28-3.95.34-7.62-2.08-8.87-5.84h0Z"/>
  <path class="cls-4" d="M594.94,373.84l-18.68-1.29,9.05-53.92-5.76-59.38,18.89-7.74,12.59,65.94-.03.12-16.05,56.28Z"/>
  <path class="cls-7" d="M450.48,367.52c-.08-4.71,3.67-8.6,8.38-8.68.5,0,1,.03,1.5.11l10.23-16.6,11.61,3.76-14.78,23.24c-1.06,4.62-5.66,7.51-10.28,6.45-3.87-.89-6.62-4.3-6.66-8.27h0Z"/>
  <polygon class="cls-7" points="508.1 575.11 498.16 575.11 493.43 536.77 508.1 536.77 508.1 575.11"/>
  <path class="cls-9" d="M510.63,584.74h-32.05v-.41c0-6.89,5.58-12.47,12.47-12.47h19.57s0,12.88,0,12.88Z"/>
  <polygon class="cls-7" points="577.43 575.11 567.49 575.11 562.77 536.77 577.44 536.77 577.43 575.11"/>
  <path class="cls-9" d="M579.97,584.74h-32.05v-.41c0-6.89,5.58-12.47,12.47-12.47h19.57s0,12.88,0,12.88Z"/>
  <circle class="cls-7" cx="567.98" cy="191.51" r="23.61"/>
  <path class="cls-9" d="M560.01,190.21c-7.84,3.28-16.86-.42-20.14-8.26-2.84-6.79-.48-14.64,5.64-18.73,6.28-4.21,15.67-2.81,21.76,2.06,8.43-3.83,18.37-1.77,24.58,5.1,5.88,6.8,6.52,17.6,2.24,25.53-3.81,8.4-3.2,18.13,1.63,25.99-1.84-.08-5.9-.42-10.98-.85-1.47-.13-2.11-4.44-3.72-4.58-1.42-.12-3.81,3.93-5.3,3.81-11.03-.93-23.38-1.88-28.97-1.69,4.22-9.87,8.43-19.74,13.26-28.37Z"/>
  <path class="cls-6" d="M586.09,357.85s7.67,7.91,2.99,48.76l-3.24,86.75-5.73,76.81-18.43-1.23-16.19-176.79-22.66,64.69-12.2,106.95-17.68-1.23-3.02-106.36,7.75-82.2,88.4-16.17Z"/>
  <path class="cls-4" d="M510.14,378.97c-9.43,0-13.23-1.13-13.5-1.22l-.44-.14.08-.45c.06-.37,6.4-37.3,15.09-56.69l6.11-78.63c.36-4.81,3.99-8.74,8.76-9.47l.08.52-.08-.52,15.55-2.44,9.51-8.37,22.78,1.26,2.01,9.64c2.72.76,20.7,6.27,22.48,19.47l.02.17-.08.15-32.94,63.37c2.78,2.75,24.78,25.34,26.27,54.23l.04.69-.68-.16c-.06-.01-7.1-1.35-44.12,4.91-17.12,2.89-29.02,3.69-36.94,3.69Z"/>
  <path class="cls-4" d="M473.62,367.14l-13.43-10.34,29.97-59.95,27.87-58.76c1.05-2.22,3.71-3.17,5.93-2.12,1.17.55,2.04,1.59,2.39,2.84l6.9,25.03-21.57,56.13-38.05,47.18Z"/>
  <polygon class="cls-3" points="372.16 268.92 315.36 268.92 315.36 212.12 343.76 212.12 343.76 214.22 317.46 214.22 317.46 266.81 370.05 266.81 370.05 240.52 372.16 240.52 372.16 268.92"/>
  <polygon class="cls-3" points="342.69 252.14 328.89 236.29 331.27 234.22 342.72 247.36 374.13 212.12 376.49 214.22 342.69 252.14"/>
  <path class="cls-8" d="M82.76,207.11l1.33-6.64s19.53-6.64,21.72,6.64h-23.05Z"/>
  <polygon class="cls-7" points="120.24 572.71 133.05 572.71 139.14 523.31 120.24 523.31 120.24 572.71"/>
  <path class="cls-9" d="M116.98,568.53h25.22s0,0,0,0c8.88,0,16.07,7.2,16.07,16.07v.52h-41.29s0-16.59,0-16.59Z"/>
  <polygon class="cls-7" points="58.51 572.71 71.32 572.71 77.41 523.31 58.51 523.31 58.51 572.71"/>
  <path class="cls-9" d="M55.25,568.53h25.22s0,0,0,0c8.88,0,16.07,7.2,16.07,16.07v.52h-41.29s0-16.59,0-16.59Z"/>
  <polygon class="cls-4" points="64.17 235 49.56 233.67 40.26 277.49 41.59 317.33 56.2 370.45 76.12 358.5 65.49 304.05 64.17 235"/>
  <polygon class="cls-6" points="54.92 365.8 58.19 393.69 61.26 458.76 54.21 555.72 79.44 554.37 91.8 453.45 99.36 406.97 109.98 460.09 116.62 559.68 142.52 557.61 142.52 459.73 143.18 388.38 133.88 360.49 54.92 365.8"/>
  <path class="cls-4" d="M109.32,208.44s-9.3-13.28-26.56-3.98l-7.97,10.62-25.23,18.59,5.31,62.41-6.64,78.35,94.28-1.33-15.94-78.35v-83.66l-17.26-2.66Z"/>
  <polygon class="cls-2" points="58.19 255.71 50.58 346.75 60.18 297.41 58.19 255.71"/>
  <path class="cls-7" d="M216.68,332.04c-5.12,1.74-10.68-1-12.42-6.12-.19-.55-.32-1.11-.41-1.68l-21.73-5.37.04-14,30.58,8.01c5.42-.46,10.19,3.56,10.65,8.98.39,4.53-2.39,8.74-6.7,10.18h0Z"/>
  <rect class="cls-8" x="186.09" y="311.32" width="21.25" height="9.3" transform="translate(-148.38 455.42) rotate(-80.1)"/>
  <circle class="cls-7" cx="94.54" cy="166.43" r="26.67"/>
  <path class="cls-9" d="M96.53,189.96c-14.53,3.49-29.13-5.46-32.62-19.99-3.01-12.52,3.23-25.43,14.92-30.85,4.69-2.09,9.81-3.01,14.94-2.68,7.98.42,15.73,3.37,23.71,3.15l1.16,1.86,4.36-1.06.93,3.46,1.15-.04c2.06,3.82-1.25,9.3-5.59,9.25-1.71-.2-3.39-.56-5.03-1.09-1.68-.36-3.66-.27-4.82,1-1.51,1.65-.85,4.22-.54,6.44s-.47,5.19-2.7,5.26c-1.14.04-2.23-.78-3.35-.57-1.31.25-1.97,1.83-1.77,3.14.32,1.29.85,2.52,1.56,3.65,3.13,6.82.61,14.9-5.83,18.74"/>
  <path class="cls-4" d="M120.24,216.23l6.34-5.13s12.79-.89,12.56,12.67l20.47,64.03,39.27,13.91-5.29,27.34-55.56-21.16-28.22-46.77,10.43-44.88Z"/>
</svg>