<?xml version="1.0" encoding="UTF-8"?>
<svg id="Camada_1" data-name="Camada 1" xmlns="http://www.w3.org/2000/svg" viewBox="0 0 680.84 584.23">
  <defs>
    <style>
      .cls-1 {
        fill: #2f2e41;
      }

      .cls-2 {
        fill: #ffb6b6;
      }

      .cls-3 {
        fill: #e4e4e4;
      }

      .cls-4 {
        fill: #212121;
      }

      .cls-5 {
        fill: #fff;
      }

      .cls-6 {
        fill: #f2f2f2;
      }

      .cls-7 {
        fill: #2e2e41;
      }

      .cls-8 {
        fill: #a06166;
      }
    </style>
  </defs>
  <path class="cls-6" d="M404.21,537.36l-14.92,13.74,11.86-19.9c-9.34-16.94-24.62-31.58-24.62-31.58,0,0-31.7,30.37-31.7,54.24s14.19,32.21,31.7,32.21,31.7-8.34,31.7-32.21c0-5.31-1.57-10.95-4.01-16.5Z"/>
  <path class="cls-5" d="M385.45,551.84v1.18c-.07,13.68-2.38,24.35-6.9,31.86-.06.11-.13.22-.2.33l-.51-.31-.48-.3c5.02-8.11,6.8-19.58,6.86-31.51,0-.38.01-.77,0-1.17-.02-5.05-.33-10.16-.82-15.12-.03-.38-.08-.77-.12-1.17-.69-6.55-1.68-12.8-2.69-18.24-.07-.38-.15-.77-.22-1.15-1.75-9.19-3.54-15.85-3.95-17.32-.05-.18-.08-.28-.08-.3l.55-.16h0s.56-.16.56-.16c0,.02.1.36.27.97.62,2.31,2.24,8.57,3.83,16.83.07.37.15.76.22,1.14.83,4.41,1.64,9.34,2.28,14.51.16,1.3.31,2.58.44,3.84.05.39.09.78.12,1.17.54,5.36.81,10.39.83,15.08Z"/>
  <path class="cls-5" d="M381.57,516.1c-.39.05-.79.1-1.19.15-1.09.11-2.19.17-3.29.17-4.68,0-9.29-1.04-13.51-3.05-.24.31-.49.62-.74.93,4.44,2.17,9.31,3.29,14.25,3.29,1.17,0,2.34-.06,3.51-.19.4-.04.79-.09,1.18-.15,3.22-.46,6.35-1.41,9.29-2.81-.25-.32-.5-.63-.73-.94-2.78,1.3-5.74,2.18-8.77,2.62Z"/>
  <path class="cls-5" d="M384.5,535.59c-.4.02-.8.03-1.21.03-.12,0-.25,0-.37,0-10.28,0-19.92-5.03-25.79-13.47-.23.34-.47.69-.69,1.04,6.12,8.54,15.98,13.6,26.49,13.6.16,0,.33,0,.49,0,.41,0,.81-.02,1.21-.03,6.22-.32,12.22-2.42,17.27-6.06-.19-.34-.37-.69-.57-1.03-4.91,3.57-10.76,5.63-16.83,5.92Z"/>
  <path class="cls-5" d="M385.45,551.84c-.41.03-.82.06-1.22.08-.44.02-.87.03-1.31.03-13.99-.02-26.29-9.25-30.21-22.67-.26.47-.52.94-.77,1.41,4.41,13.37,16.9,22.41,30.98,22.43.44,0,.87,0,1.3-.03.41-.01.82-.03,1.23-.06,8.24-.64,15.92-4.39,21.49-10.49-.12-.43-.26-.86-.4-1.29-5.38,6.14-12.95,9.95-21.09,10.6Z"/>
  <circle class="cls-3" cx="137.36" cy="225.34" r="76.47"/>
  <circle class="cls-4" cx="137.36" cy="225.34" r="63.72"/>
  <circle class="cls-3" cx="340.42" cy="225.34" r="76.47"/>
  <circle class="cls-5" cx="340.42" cy="225.34" r="63.72"/>
  <circle class="cls-3" cx="543.48" cy="225.34" r="76.47"/>
  <circle class="cls-5" cx="543.48" cy="225.34" r="63.72"/>
  <path class="cls-5" d="M131.94,248.39c-.11,0-.23,0-.34,0-2.04-.1-3.93-1.08-5.19-2.69l-9.77-12.57c-2.37-3.05-1.82-7.45,1.23-9.83l.35-.27c3.05-2.37,7.45-1.82,9.83,1.23,2.11,2.72,6.03,3.2,8.74,1.09.25-.19.48-.4.7-.63l19.85-20.95c2.66-2.81,7.09-2.93,9.9-.27,0,0,0,0,0,0l.32.31c2.81,2.66,2.93,7.09.27,9.9l-30.8,32.51c-1.32,1.4-3.16,2.19-5.08,2.19Z"/>
  <path class="cls-1" d="M306.86,209.86h-50.33v-43.77c.11-5.64,4.76-10.13,10.4-10.04h16.73c12.79,0,23.2,10.04,23.2,22.39v31.42Z"/>
  <polygon class="cls-2" points="325.49 576.14 315.94 576.14 311.39 539.29 325.49 539.29 325.49 576.14"/>
  <path class="cls-1" d="M327.93,585.4h-30.81v-.39c0-6.62,5.37-11.99,11.99-11.99h18.82s0,12.38,0,12.38Z"/>
  <polygon class="cls-2" points="237.42 576.14 227.87 576.14 223.32 539.29 237.43 539.29 237.42 576.14"/>
  <path class="cls-1" d="M239.86,585.4h-30.81v-.39c0-6.62,5.37-11.99,11.99-11.99h18.82s0,12.38,0,12.38Z"/>
  <polygon class="cls-8" points="248.96 280.07 242.73 319.81 301.96 320.59 294.16 282.4 248.96 280.07"/>
  <path class="cls-7" d="M244.45,310.11l-18.86,50.23-2.34,208.17h15.98l38.19-167.25,35.07,162.89h15.59l-10.91-183.15s3.22-36.76-13.25-58.45l-4.01-11.58-55.45-.85Z"/>
  <path class="cls-8" d="M325.36,349.27c-6.23-1.7-9.9-8.12-8.21-14.36.18-.66.42-1.31.72-1.93l-25.2-82.15,18.53-3.67,23.05,80.52c5.67,3.16,7.7,10.32,4.54,15.99-2.65,4.74-8.2,7.06-13.43,5.6h0Z"/>
  <path class="cls-3" d="M292.02,302.02l-40.83-.79c-2.4-.05-4.47-1.7-5.06-4.02-2.19-8.67-7-31.25-4.45-53.75,2.08-18,18.36-30.9,36.36-28.82.31.04.62.08.93.12,17.94,2.57,30.41,19.2,27.84,37.14-.18,1.24-.43,2.47-.74,3.68-5.14,19.52-8.04,33.48-8.63,41.5-.18,2.38-1.92,4.36-4.27,4.83h0c-.34.07-.68.1-1.03.1-.04,0-.08,0-.11,0Z"/>
  <path class="cls-8" d="M168,229.86c.25.55.45,1.12.6,1.7l51.11,17.37,9.88-8.63,14.97,13.2-16,16.97c-2.65,2.82-6.85,3.54-10.3,1.78l-54.69-27.93c-5.38,3.3-12.41,1.61-15.71-3.76-3.3-5.38-1.61-12.41,3.76-15.71,5.38-3.3,12.41-1.61,15.71,3.76.25.4.47.82.66,1.25h0Z"/>
  <path class="cls-3" d="M219.81,246.15c0-1.42.64-2.77,1.72-3.7l18.71-15.94c4.94-5.66,13.53-6.24,19.19-1.3,5.64,4.92,6.24,13.48,1.35,19.14l-13.33,20.75c-1.46,2.28-4.49,2.94-6.77,1.47-.2-.13-.39-.27-.58-.43l-18.63-16.27c-1.07-.94-1.69-2.29-1.68-3.72Z"/>
  <path class="cls-3" d="M291.55,271.64c-1.26-.66-2.17-1.84-2.49-3.23l-5.53-23.95c-2.75-6.99.69-14.89,7.68-17.64,6.97-2.74,14.84.66,17.61,7.62l12.28,21.38c1.35,2.35.54,5.34-1.81,6.69-.21.12-.42.22-.65.31l-23.02,9.04c-1.33.52-2.81.44-4.07-.22Z"/>
  <ellipse class="cls-1" cx="300.67" cy="155.76" rx="8.71" ry="11.62" transform="translate(39.32 371.07) rotate(-66.87)"/>
  <circle class="cls-8" cx="272.14" cy="181.79" r="23.83"/>
  <path class="cls-1" d="M285.21,154.5h-27.26c-4.14-.05-7.63,3.1-7.99,7.23-.28,4.27,2.94,7.96,7.21,8.24.17.01.34.02.51.02h0c4.28,0,7.74,3.47,7.74,7.74h0v31.75h42.59v-32.17c0-12.6-10.21-22.81-22.81-22.81h0Z"/>
</svg>