<svg width="85" height="32" viewBox="0 0 85 32" fill="none" xmlns="http://www.w3.org/2000/svg">
<path d="M20.5743 14.2469H18.7676V12.1165H20.5743V9.04235H23.1631V12.1165H25.7519V14.2469H23.1631V20.1795C23.1631 21.0964 23.6755 21.5278 24.5384 21.5278C25.4013 21.5278 25.644 21.3121 26.0216 21.0694V23.4155C25.5901 23.6851 24.889 23.82 24.08 23.82C22.0305 23.82 20.6013 22.7413 20.6013 20.4761V14.2469H20.5743Z" fill="#090909"/>
<path d="M33.5991 23.5772V22.93C33.2216 23.3075 32.062 23.7929 30.7676 23.7929C28.4216 23.7929 26.48 22.3907 26.48 20.0446C26.48 17.6985 28.4216 16.3502 30.9294 16.3502C33.4373 16.3502 33.1137 16.7007 33.5991 17.0513V16.1344C33.5991 14.9749 32.871 14.058 31.4148 14.058C29.9587 14.058 29.7429 14.4895 29.4463 15.2985H26.9654C27.289 13.3299 29.0957 11.8738 31.4418 11.8738C33.7879 11.8738 36.0261 13.4648 36.0261 16.0805V23.5772H33.5722H33.5991ZM33.5991 19.5592C33.3025 18.8311 32.2778 18.3996 31.253 18.3996C30.2283 18.3996 28.88 18.885 28.88 20.0176C28.88 21.1502 30.0935 21.6626 31.253 21.6626C32.4126 21.6626 33.3295 21.2311 33.5991 20.503V19.5592Z" fill="#090909"/>
<path d="M44.3588 14.7322C44.0083 14.4625 43.388 14.3547 42.8487 14.3547C41.797 14.3547 40.7992 14.9479 40.5565 16.1884V23.6042H37.9678V12.1434H40.5565V13.3299C40.988 12.467 42.0127 11.8738 43.1184 11.8738C44.224 11.8738 44.197 11.9816 44.3858 12.0895V14.7592L44.3588 14.7322Z" fill="#090909"/>
<path d="M54.633 20.0176C54.2555 22.2828 52.5566 23.8469 49.806 23.8469C47.0554 23.8469 44.3857 21.4199 44.3857 17.8873C44.3857 14.3547 46.624 11.8738 49.7521 11.8738C52.8802 11.8738 54.7409 14.1659 54.7409 17.5367V18.4536H46.9206C47.0015 20.476 48.161 21.6895 49.806 21.6895C51.4509 21.6895 51.9633 21.1502 52.2599 20.0446H54.633V20.0176ZM47.0015 16.5389H52.179C52.179 15.1367 51.3431 14.0041 49.779 14.0041C48.215 14.0041 47.2981 14.894 47.0015 16.5389Z" fill="#090909"/>
<path d="M62.2915 9.12342C61.914 8.85376 61.4286 8.77286 61.0241 8.77286C59.9993 8.77286 59.3521 9.39309 59.3521 10.5257V12.1167H61.86V14.247H59.3521V23.5505H56.8173V14.247H54.8218V12.1167H56.8173V10.3369C56.8173 7.88297 58.4353 6.53465 60.5926 6.53465C62.7499 6.53465 61.8331 6.64251 62.2915 6.83128V9.09646V9.12342Z" fill="#090909"/>
<path d="M69.3296 9.12342C68.952 8.85376 68.4666 8.77286 68.0621 8.77286C67.0374 8.77286 66.3902 9.39309 66.3902 10.5257V12.1167H68.8981V14.247H66.3902V23.5505H63.8554V14.247H61.8599V12.1167H63.8554V10.3369C63.8554 7.88297 65.4734 6.53465 67.6307 6.53465C69.788 6.53465 68.8711 6.64251 69.3296 6.83128V9.09646V9.12342Z" fill="#090909"/>
<path d="M76.0444 23.5772V22.93C75.6669 23.3075 74.5073 23.7929 73.213 23.7929C70.8669 23.7929 68.9253 22.3907 68.9253 20.0446C68.9253 17.6985 70.8669 16.3502 73.3748 16.3502C75.8826 16.3502 75.559 16.7007 76.0444 17.0513V16.1344C76.0444 14.9749 75.3163 14.058 73.8601 14.058C72.404 14.058 72.1882 14.4895 71.8916 15.2985H69.4107C69.7343 13.3299 71.541 11.8738 73.8871 11.8738C76.2332 11.8738 78.4714 13.4648 78.4714 16.0805V23.5772H76.0175H76.0444ZM76.0444 19.5592C75.7478 18.8311 74.7231 18.3996 73.6983 18.3996C72.6736 18.3996 71.3253 18.885 71.3253 20.0176C71.3253 21.1502 72.5388 21.6626 73.6983 21.6626C74.8579 21.6626 75.7748 21.2311 76.0444 20.503V19.5592Z" fill="#090909"/>
<path d="M7.76731 22.6336C10.7459 22.6336 13.1606 20.219 13.1606 17.2403C13.1606 14.2617 10.7459 11.847 7.76731 11.847C4.78868 11.847 2.37402 14.2617 2.37402 17.2403C2.37402 20.219 4.78868 22.6336 7.76731 22.6336Z" stroke="#090909" stroke-width="1.02472" stroke-linecap="round" stroke-linejoin="round"/>
<path d="M7.767 20.4225C9.52439 20.4225 10.949 18.9978 10.949 17.2404C10.949 15.4831 9.52439 14.0584 7.767 14.0584C6.00961 14.0584 4.58496 15.4831 4.58496 17.2404C4.58496 18.9978 6.00961 20.4225 7.767 20.4225Z" fill="#090909" stroke="#090909" stroke-width="0.916859" stroke-linecap="round" stroke-linejoin="round"/>
</svg>
